<?xml version="1.0" encoding="UTF-8"?>
<svg version="1.1" viewBox="0 0 392.79 684.28" xmlns="http://www.w3.org/2000/svg">
 <path d="m184.53 13.57c-11.67 11.67-25.93 41.49-25.93 41.49l-16.86 15.56 2.59 9.08-14.26-1.3-24.63 25.93-16.85 46.67v28.52l-28.52 23.34-18.15 24.63-5.19 31.12-31.12 121.87-3.89 92.05 18.15 24.63 10.37 3.89-1.3 16.86 20.74 54.45h10.37l-1.3 38.9 9.08 16.86 15.56 15.56-3.89 14.26 12.96 24.63 199.66-1.3-2.59-54.45-2.59-9.08v-11.67l-6.48-27.23-7.78-22.04-1.3-5.19 50.56 25.93-2.59-64.83-7.78-9.08-3.89-55.75-3.89-5.19-3.89-38.9 31.12-10.37 25.93-25.93 14.26-1.3 6.48-9.08-2.59-11.67 14.26-15.56-5.19-9.08 6.48-7.78-5.19-7.78 1.3-7.78-6.48-6.48 3.89-7.78-6.48-9.08-7.78 1.3-2.59-35.01-50.56 2.59 3.89 42.78-14.26 5.19 5.19 18.15-9.08 5.19-6.48-14.26-1.3-15.56-3.89-7.78-2.59-45.38-6.48-12.96 12.96-20.74-14.26-7.78 6.48-7.78-24.63-19.45 7.78-19.45 19.45-9.08-2.59-7.78 10.37-5.19-3.89-7.78v-5.19l15.56-9.08-5.19-11.67-12.96 7.78 1.3-19.45-6.48-7.78 1.3-14.26-5.19-7.78-12.96-27.23-9.08 2.59-14.26-11.67-12.96 1.3-11.67-9.08z" fill="none" stroke="#000" stroke-opacity=".52" stroke-width="3.4016"/>
</svg>
