<?xml version="1.0" encoding="UTF-8"?>
<!-- Created with Inkscape (http://www.inkscape.org/) -->
<svg width="163.25mm" height="285.75mm" version="1.1" viewBox="0 0 163.25 285.75" xml:space="preserve" xmlns="http://www.w3.org/2000/svg"><g transform="translate(-26.855)" fill="none" stroke-width=".26458"><path id="path1915_bart" d="m77.339 47.202c4.2963 6.2727 3.2505 16.545-1.5007 21.993-4.174 10.749 6.4527 19.448 11.518 27.68 9.2648 9.8663 14.348-5.5026 18.928-11.644 2.7814-8.8865-10.503-12.37-12.182-20.756-3.3258-7.5733 2.6781-20.698-7.4606-24.257-4.0642-0.09694-8.931 2.5308-9.3034 6.9843z" stroke="#201f13"/><path id="path1916_alrik" d="m98.794 72.317c8.3352-6.5417 6.4519-19.988 16.212-25.63 6.6336-10.024 21.146-6.7704 22.6 4.9779 0.85578 7.7637-7.044 12.541-2.1764 20.149 0.18725 4.4405 0.87338 17.66 3.7544 15.715-1.3309-7.554 8.0097-15.738 11.071-5.1756 5.0566 8.8169-0.82383 16.865-9.2334 19.432-2.3325 4.5755-11.249 17.832-12.092 6.0524-4.9004-7.9332-7.2211-16.432-5.5394-25.375-3.3315-8.5129-13.712-5.4318-15.656 1.3257-3.1757-3.498-3.4349-10.599-8.9404-11.47z" stroke="#082ef6"/><path id="path1918_mike" d="m64.844 74.211c-3.5724 7.1452-3.8956 15.647-8.3501 22.212-4.1564 4.6918-14.638 13.706-18.665 4.4261-0.4193-6.5117-8.6385-11.033-9.7367-1.9308 1.1517 8.7473 10.99 21.364 20.717 18.164 7.8124-6.5304 13.963 1.6481 10.208 9.4447-2.5684 10.257-1.8981 20.391-2.4964 30.667-4.0134 12.608-1.7862 25.74-0.38946 38.546 1.0699 6.2408-0.54902 10.915-5.8379 14.009-2.5927 11.527 11.543 10.654 19.071 11.133 9.8994 0.9963 19.783 2.143 29.682 3.1382 7.6926-2.4572 9.4451-9.7043 0.05388-10.58-8.3615-7.3024-3.0168-19.784-8.455-28.589-3.9813-10.974-3.5564-23.045-1.4375-34.343-1.2258-10.352-6.2029-20.063-4.9522-30.632-0.25822-8.2162 13.858-14.941 4.3906-22.2-8.1589-5.49-10.405-15.1-15.766-22.823-1.7746-3.0397-5.7431-3.2799-8.0359-0.64262z" stroke="#11c42a"/><path id="path1917_rob" d="m108.13 86.453c-8.8112 4.6289-10.132 15.971-16.806 22.721-5.264 8.9894-5.1168 20.4 0.0013 29.403 4.0312 10.364 2.0564 21.893-2.2969 31.79-1.2603 11.402 6.1978 21.695 5.5222 33.226 2.2331 11.976 15.344 14.419 25.304 16.644 12.642 2.2639 25.499 8.5157 38.479 4.8909-2.658-8.4363-14.499-5.9342-19.818-12.133-9.2928-7.8785-3.8341-20.763-4.1161-31.045-0.28722-12.286-5.1023-23.873-6.2028-36.053 10.756 4.083 18.363-9.13 24.58-15.053-6.3917-1.8392-16.853 2.4176-19.352-7.076-2.0996-9.8944-5.5968-19.199-10.42-28.204 0.9459-6.5556 1.0001-21.598-10.078-18.038-3.2274 1.6893-3.2704 5.9885-4.7976 8.9269z" stroke="#f41f07"/><path id="path1918_joene" d="m161.14 92.889c-4.7307 9.6335-18.86 5.6585-24.205 15.321-8.7241 6.4275-4.7102 22.544 6.6247 21.8 4.4195-1.4127 15.418-0.38785 6.519 4.6091-6.1891 5.157-11.472 14.637-20.721 13.225 2.1682 16.209 8.439 32.544 4.0906 48.975-1.3558 8.8684 4.7402 16.755 12.761 19.801 9.1637 4.3688 19.266 6.2861 28.664 9.989 8.1434 1.3815 8.9727-10.665-0.16179-8.24-7.5864-2.3336-16.664-8.798-17.409-17.163 4.2442-10.156 16.173-14.163 24.946-19.679 11.318-6.4327-1.585-18.153-0.83712-27.589-2.9299-13.177-10.101-25.347-10.733-39.044 5.019-7.6845 6.4409-27.453-7.7601-22.646z" stroke="#ccd12d"/></g></svg>
