<?xml version="1.0" encoding="UTF-8"?>
<!-- Created with Inkscape (http://www.inkscape.org/) -->
<svg width="163.25mm" height="285.75mm" version="1.1" viewBox="0 0 163.25 285.75" xml:space="preserve" xmlns="http://www.w3.org/2000/svg"><g transform="translate(-26.855)" fill="none"><g stroke-width=".26458"><path id="path1915_bart" d="m75.621 45.313c4.7518 5.4821 0.8408 13.647 2.7022 19.293-7.832 6.3875-3.0868 17.122 2.4297 23.409 3.9174 6.8593 13.432 18.55 19.016 6.2845 7.319-6.9849 8.4675-17.012-0.28153-23.443-6.5923-6.3145-3.562-13.529-6.1038-21.235 5.5136-10.806-15.502-14.712-17.762-4.3082z" stroke="#201f13"/><path id="path1916_alrik" d="m97.077 71.115c10.727-1.8095 3.7148-16.914 13.669-20.426 5.1396-8.5241 16.061-16.744 25.186-7.906 2.0291 4.3993 1.1228 7.5883 3.9909 10.883 1.8502 7.7462-11.111 8.8693-3.1344 16.072 1.725 5.287-2.5008 14.613 2.7404 18.134-5.4104-8.9326 6.0762-16.88 11.255-7.915 1.7635 6.6474 5.5723 16.322-4.322 18.752-6.2625 3.1591-9.5057 18.47-17.211 14.224 1.7425-8.2854-6.8458-12.742-8.0599-20.306 6.5402-6.3092-0.9073-19.622-9.9376-14.699-3.5681 2.6646-4.1521 6.6446-6.8725 0.4909-2.0438-2.7745-4.3316-5.4843-7.303-7.303z" stroke="#082ef6"/><path id="path1918_mike" d="m63.985 73.18c-7.5888 5.3053 2.4128 14.667-7.1964 17.165-0.4271 6.1993-6.843 13.413-13.63 14.939-4.9936-3.6024-6.5268-19.982-15.801-11.462-4.8244 8.9255 3.3458 18.009 10.613 22.343 2.6236 3.6562 11.233 1.1391 6.7597 6.4187 2.2265 7.6567 1.998 15.444 3.4611 23.553 0.29802 11.359 0.22803 23.056 0.82034 34.04 7.058 5.5878 4.8544 16.151 4.4376 24.091-3.5277 4.0819-11.317 11.728-1.8452 14.767 11.681 3.4939 24.123 2.7266 36.141 4.2525 7.7896-0.56588 17.074 3.9127 23.794-0.27263 3.116-11.898-17.334-9.343-15.335-22.276-0.15369-11.098-7.3422-19.89-7.7449-30.469 0.01515-7.9523-2.6605-16.719 4.6982-22.337-1.4517-11.595-10.986-23.67-3.9856-35.181 4.6887-5.8849 9.9927-16.14-1.1298-17.869-8.7578-5.7499-9.1407-19.96-19.158-23.51-1.7755-0.10237-3.692 0.43368-4.8992 1.8076z" stroke="#11c42a"/></g><path id="path1917_rob" d="m105.21 86.453c-8.3911 4.5882-6.9293 14.903-14.012 20.736-6.2564 8.3922-7.0076 20.648-1.363 29.655 2.8829 8.7129 4.5567 18.531 3.6235 27.811-3.4974 9.6016-2.5343 18.298-0.51516 28.159 0.74703 9.4541 2.9723 20.9 14.453 22.295 9.2693 2.6682 15.96 4.0655 24.316 8.6074 8.6832 5.5901 19.714 6.4564 29.541 3.8156-4.3888-10.135-18.453-9.3788-24.055-18.668-6.2822-9.9715-0.10386-21.923-2.3968-32.772-0.98169-10.173-4.7921-19.782-6.2613-29.851 9.1502 6.9657 14.296-6.6737 21.025-10.823 6.0074-3.6133 4.8594-5.9229-1.6178-5.0836-10.782 2.9769-13.718-8.1191-16.014-16.128-1.0492-8.4433-8.3871-15.509-6.3574-23.958 2.1086-8.2182-9.535-20.75-15.593-11.035-1.3995 2.5524-2.274 5.5077-4.772 7.2401z" stroke="#f41f07" stroke-width=".265"/><path id="path1918_joene" d="m158.91 91.687c-4.5886 9.1815-17.972 5.1774-20.942 16.007-12.487 3.8938-5.3866 17.306 1.6478 23.298 4.5905-0.1911 19.027-1.4637 8.4624 4.8536-7.2594 4.3269-11.265 16.067-21.293 9.7655 3.2792 9.0761 3.6758 21.093 13.263 26.096 7.756 6.632 0.39694 15.894-3.9718 22.002-4.835 9.1561 0.76767 21.906 10.825 24.624 13.49 5.637 27.543 9.7694 41.198 14.971 9.7662-1.0967 2.2693-17.354-5.9619-14.4-8.2543-3.2996-17.916-7.1557-21.78-15.804 2.8118-8.7666 17.444-15.354 12.482-27.199-2.3473-7.6349-7.3634-14.842-11.467-21.283 1.2139-2.3617-1.1496-18.416 1.8456-8.4802 3.1934 10.216 10.503 18.676 13.107 28.931 0.56489 9.5263 11.221 11.116 11.484 0.76693-1.993-8.4527-3.6437-17.914-7.3715-25.145-0.77275-7.5638-5.6755-13.55-7.083-20.814 1.4967-7.6583-7.6685-14.221 0.5787-19.886 5.3827-7.3057 1.9837-20.552-8.4581-20.192-2.3633-0.07083-4.5161 0.84192-6.5664 1.8866z" stroke="#ccd12d" stroke-width=".26458"/></g></svg>
